<svg width="600" height="600" viewBox="0 0 600 600" xmlns="http://www.w3.org/2000/svg">
	<g transform="translate(300,300)">
		<path d="M126.1,-164.9C168.7,-142.6,212.3,-112.9,216.5,-76C220.6,-39.1,185.5,4.800000000000001,156.8,38C128.2,71.1,106.1,93.4,81.1,126.6C56,159.8,28,203.9,-13.2,222.1C-54.5,240.3,-108.9,232.6,-147.3,203.7C-185.7,174.9,-207.9,124.8,-207.8,78.5C-207.6,32.2,-185.1,-10.3,-175.1,-61.7C-165,-113.2,-167.5,-173.5,-140.4,-200.8C-113.2,-228.2,-56.6,-222.6,-7.4,-212.4C41.7,-202.1,83.5,-187.2,126.1,-164.9Z" fill="rgba(0, 0, 0, 1)" stroke="none" stroke-width="0">
		</path>
	</g>
</svg>
