<svg width="74" height="74" viewBox="0 0 74 74" fill="none" xmlns="http://www.w3.org/2000/svg">
<path fill-rule="evenodd" clip-rule="evenodd" d="M67.5859 71.4141C66.4143 72.5857 64.5148 72.5857 63.3432 71.4141L2.58586 10.6568C1.41429 9.48519 1.41429 7.58569 2.58586 6.41412L6.12139 2.87858C7.29297 1.70701 9.19246 1.70701 10.364 2.87858L71.1214 63.6359C72.293 64.8075 72.293 66.707 71.1214 67.8786L67.5859 71.4141Z" fill="black"/>
<path fill-rule="evenodd" clip-rule="evenodd" d="M3.12133 68.1213C1.94975 66.9498 1.94975 65.0503 3.12133 63.8787L63.8787 3.12134C65.0503 1.94977 66.9497 1.94977 68.1213 3.12134L71.6569 6.65688C72.8284 7.82845 72.8284 9.72794 71.6569 10.8995L10.8995 71.6569C9.72793 72.8284 7.82843 72.8284 6.65686 71.6569L3.12133 68.1213Z" fill="black"/>
</svg>
