<svg width="456" height="502" viewBox="0 0 480 590" fill="none" xmlns="http://www.w3.org/2000/svg">
<g clip-path="url(#clip0)">
<path d="M94.5159 332.023L98.2008 372.383H190.205V332.023H94.5159Z" fill="#EBEBEB"/>
<path d="M190.205 250.331H190.063H87.1118L90.8492 290.692H190.205V250.331Z" fill="#EBEBEB"/>
<path d="M190.205 478.837V436.844L190.025 436.891L144.236 424.754L141.309 392.564H119.06H100.038L105.798 455.937L190.016 478.888L190.205 478.837Z" fill="#EBEBEB"/>
<path d="M103.289 93.6307H153.085V114.073H124.113V134.516H153.085V154.958H103.289V93.6307Z" fill="black"/>
<path d="M163.044 93.6307H212.839V111.407H183.867V114.962H212.839V155.847H163.044V137.182H192.016V133.627H163.044V93.6307Z" fill="black"/>
<path d="M222.798 93.6307H272.594V111.407H243.622V114.962H272.594V155.847H222.798V137.182H251.77V133.627H222.798V93.6307Z" fill="black"/>
<path d="M240.689 372.383L235.917 424.728L190.063 436.878V478.869L274.348 455.937L274.966 449.118L284.627 342.861L285.63 332.023L293.053 250.331H190.063V290.692H247.996L244.255 332.023H190.063V372.383H240.689Z" fill="white"/>
</g>
<defs>
<clipPath id="clip0">
<rect width="361" height="562" fill="white"/>
</clipPath>
</defs>
</svg>
