<svg width="456" height="502" viewBox="0 0 480 590" fill="none" xmlns="http://www.w3.org/2000/svg">
<g clip-path="url(#clip0)">
<g clip-path="url(#clip1)">
<path d="M238 303.217H177.91L173.76 256.716H238V211.305H237.843H124.132L125.219 223.488L136.38 348.627H238V303.217Z" fill="#EBEBEB"/>
<path d="M238 421.153L237.801 421.206L187.227 407.55L183.994 371.333H159.419H138.409L144.771 442.634L237.791 468.457L238 468.399V421.153Z" fill="#EBEBEB"/>
<path d="M90.382 35H113.459V57.8H134.569V35H157.647V104.044H134.57V80.924H113.46V104.044H90.383V35H90.382Z" fill="black"/>
<path d="M187.994 57.896H167.678V35H231.398V57.896H211.073V104.044H187.995V57.896H187.994Z" fill="black"/>
<path d="M241.511 35H265.574L280.376 59.26L295.163 35H319.235V104.044H296.253V69.822L280.376 94.371H279.979L264.091 69.822V104.044H241.511V35V35Z" fill="black"/>
<path d="M330.72 35H353.804V81.222H386.257V104.044H330.72V35Z" fill="black"/>
<path d="M237.843 303.217V348.627H293.761L288.49 407.521L237.843 421.191V468.435L330.937 442.634L331.62 434.962L342.291 315.411L343.399 303.217H331.162H237.843Z" fill="white"/>
<path d="M237.843 211.305V239.509V256.605V256.716H347.385H347.531L348.442 246.509L350.511 223.488L351.597 211.305H237.843Z" fill="white"/>
</g>
</g>
<defs>
<clipPath id="clip0">
<rect width="456" height="562" fill="white"/>
</clipPath>
<clipPath id="clip1">
<rect x="-18" y="35" width="512" height="512" fill="white"/>
</clipPath>
</defs>
</svg>
