<svg width="582" height="546" viewBox="0 0 582 546" fill="none" xmlns="http://www.w3.org/2000/svg">
<path d="M562.607 271.227C562.607 235.249 517.552 201.154 448.474 180.01C464.415 109.604 457.33 53.5898 426.112 35.6563C418.916 31.4497 410.503 29.4571 401.315 29.4571V54.1433C406.407 54.1433 410.503 55.1396 413.935 57.0215C428.99 65.6561 435.521 98.5342 430.429 140.822C429.211 151.228 427.219 162.187 424.783 173.368C403.086 168.054 379.396 163.958 354.488 161.301C339.543 140.822 324.045 122.224 308.436 105.951C344.524 72.4089 378.399 54.0326 401.425 54.0326V29.3464C370.982 29.3464 331.129 51.0437 290.834 88.6819C250.538 51.2651 210.686 29.7892 180.243 29.7892V54.4754C203.158 54.4754 237.144 72.741 273.232 106.062C257.734 122.335 242.236 140.822 227.512 161.301C202.494 163.958 178.804 168.054 157.106 173.478C154.56 162.408 152.678 151.67 151.349 141.375C146.146 99.0877 152.567 66.2096 167.512 57.4643C170.833 55.4717 175.15 54.5861 180.243 54.5861V29.8999C170.944 29.8999 162.53 31.8925 155.224 36.0991C124.117 54.0326 117.143 109.936 133.194 180.12C64.3377 201.375 19.5034 235.36 19.5034 271.227C19.5034 307.205 64.5591 341.3 133.637 362.444C117.696 432.85 124.781 488.864 155.999 506.798C163.195 511.004 171.608 512.997 180.907 512.997C211.35 512.997 251.203 491.3 291.498 453.661C331.794 491.078 371.646 512.554 402.089 512.554C411.388 512.554 419.802 510.561 427.108 506.355C458.215 488.421 465.19 432.518 449.138 362.333C517.773 341.19 562.607 307.094 562.607 271.227ZM418.473 197.39C414.377 211.67 409.285 226.393 403.529 241.116C398.99 232.26 394.23 223.404 389.027 214.548C383.934 205.692 378.51 197.058 373.086 188.644C388.805 190.969 403.971 193.847 418.473 197.39ZM367.772 315.286C359.137 330.23 350.281 344.4 341.093 357.573C324.598 359.012 307.882 359.787 291.055 359.787C274.339 359.787 257.623 359.012 241.239 357.684C232.051 344.511 223.084 330.452 214.45 315.618C206.036 301.116 198.398 286.393 191.424 271.559C198.287 256.725 206.036 241.891 214.339 227.39C222.974 212.445 231.83 198.275 241.018 185.102C257.513 183.663 274.229 182.888 291.055 182.888C307.771 182.888 324.487 183.663 340.871 184.991C350.06 198.165 359.026 212.224 367.661 227.057C376.074 241.559 383.713 256.282 390.687 271.116C383.713 285.95 376.074 300.784 367.772 315.286ZM403.529 300.895C409.506 315.729 414.599 330.562 418.805 344.954C404.304 348.496 389.027 351.485 373.196 353.81C378.621 345.286 384.045 336.54 389.137 327.574C394.23 318.717 398.99 309.751 403.529 300.895ZM291.277 419.012C280.982 408.385 270.686 396.54 260.502 383.588C270.465 384.031 280.649 384.363 290.945 384.363C301.351 384.363 311.646 384.141 321.72 383.588C311.757 396.54 301.461 408.385 291.277 419.012ZM208.914 353.81C193.195 351.485 178.029 348.607 163.527 345.064C167.623 330.784 172.715 316.061 178.471 301.338C183.01 310.194 187.77 319.05 192.973 327.906C198.176 336.762 203.49 345.396 208.914 353.81ZM290.723 123.442C301.019 134.069 311.314 145.914 321.498 158.866C311.535 158.423 301.351 158.091 291.055 158.091C280.649 158.091 270.354 158.312 260.28 158.866C270.243 145.914 280.539 134.069 290.723 123.442ZM208.804 188.644C203.379 197.168 197.955 205.914 192.863 214.88C187.77 223.736 183.01 232.592 178.471 241.449C172.494 226.615 167.401 211.781 163.195 197.39C177.697 193.958 192.973 190.969 208.804 188.644ZM108.619 327.241C69.43 310.526 44.0793 288.607 44.0793 271.227C44.0793 253.847 69.43 231.818 108.619 215.213C118.139 211.117 128.545 207.463 139.283 204.032C145.593 225.729 153.896 248.312 164.191 271.448C154.006 294.474 145.814 316.946 139.615 338.533C128.656 335.101 118.25 331.337 108.619 327.241ZM168.176 485.432C153.121 476.798 146.589 443.92 151.682 401.632C152.899 391.226 154.892 380.267 157.327 369.086C179.025 374.4 202.715 378.496 227.623 381.153C242.568 401.632 258.066 420.23 273.675 436.503C237.586 470.045 203.711 488.421 180.685 488.421C175.704 488.311 171.497 487.314 168.176 485.432ZM430.761 401.079C435.964 443.366 429.543 476.244 414.599 484.99C411.278 486.982 406.96 487.868 401.868 487.868C378.953 487.868 344.967 469.602 308.878 436.281C324.377 420.008 339.875 401.521 354.598 381.042C379.617 378.385 403.307 374.289 425.005 368.865C427.551 380.046 429.544 390.783 430.761 401.079ZM473.382 327.241C463.861 331.337 453.455 334.99 442.717 338.422C436.407 316.725 428.104 294.142 417.809 271.006C427.994 247.98 436.186 225.508 442.385 203.921C453.344 207.353 463.75 211.117 473.492 215.213C512.681 231.928 538.031 253.847 538.031 271.227C537.921 288.607 512.57 310.636 473.382 327.241Z" fill="#61DAFB"/>
</svg>
